<?xml version="1.0" encoding="utf-8"?>
<!-- Generator: Adobe Illustrator 19.2.1, SVG Export Plug-In . SVG Version: 6.00 Build 0)  -->
<svg version="1.1" id="Layer_1" xmlns="http://www.w3.org/2000/svg" xmlns:xlink="http://www.w3.org/1999/xlink" x="0px" y="0px"
	 viewBox="0 0 45.8 45.8" style="enable-background:new 0 0 45.8 45.8;" xml:space="preserve">
<style type="text/css">
	.st0{fill:#F6BF4E;}
</style>
<title>Shape</title>
<desc>Created using Figma</desc>
<g id="Canvas" transform="translate(-6912 -3257)">
	<g id="Shape">
		<g transform="translate(6912 3257)">
			<path id="path0_fill" class="st0" d="M6934.4,3280.5h16.8c1,0,1.9,0.8,1.9,1.9c0,11.3-9.2,20.5-20.5,20.5s-20.5-9.2-20.5-20.5
				c0-11.3,9.2-20.5,20.5-20.5c1,0,1.9,0.8,1.9,1.9V3280.5z M6928.8,3285.1c0-2.6-2.1-4.7-4.7-4.7c-0.5,0-0.9-0.4-0.9-0.9
				c0-0.5,0.4-0.9,0.9-0.9h2.8c1,0,1.9-0.8,1.9-1.9s-0.8-1.9-1.9-1.9c0-1-0.8-1.9-1.9-1.9s-1.9,0.8-1.9,1.9v0.1
				c-2.1,0.4-3.7,2.3-3.7,4.6c0,2.6,2.1,4.7,4.7,4.7c0.5,0,0.9,0.4,0.9,0.9c0,0.5-0.4,0.9-0.9,0.9h-2.8c-1,0-1.9,0.8-1.9,1.9
				s0.8,1.9,1.9,1.9h1.9c0,1,0.8,1.9,1.9,1.9s1.9-0.8,1.9-1.9v-1C6928,3288,6928.8,3286.6,6928.8,3285.1z"/>
		</g>
	</g>
</g>
<g id="Canvas_1_" transform="translate(-6938 -3250)">
	<g id="Shape_1_">
		<g transform="translate(6938 3250)">
			<path id="path0_fill_1_" class="st0" d="M6963.7,3250c-1,0-1.8,0.8-1.8,1.8v18.3c0,1,0.8,1.8,1.8,1.8h18.3c1,0,1.8-0.8,1.8-1.8
				C6983.8,3259,6974.8,3250,6963.7,3250z"/>
		</g>
	</g>
</g>
</svg>
