<svg width="50" height="50" viewBox="0 0 50 50" version="1.1" xmlns="http://www.w3.org/2000/svg" xmlns:xlink="http://www.w3.org/1999/xlink">
<title>Group 3</title>
<desc>Created using Figma</desc>
<g id="Canvas" transform="translate(-7327 -3610)">
<g id="Group 3">
<g id="Shape">
<use xlink:href="#path0_fill" transform="translate(7334.36 3617.1)" fill="#FC7455"/>
</g>
<g id="Shape">
<use xlink:href="#path1_fill" transform="translate(7327.36 3610.07)" fill="#FC7455"/>
</g>
</g>
</g>
<defs>
<path id="path0_fill" fill-rule="evenodd" d="M 17.6846 0C 7.95508 -0.0319824 0.0141602 7.88159 0 17.6226C -0.0141602 27.3252 7.89746 35.2424 17.625 35.261C 27.3359 35.2791 35.248 27.3943 35.2876 17.6597C 35.3276 7.97192 27.4126 0.0322266 17.6846 0ZM 17.2158 17.3906L 17.4312 17.4771L 17.4302 15.6956L 17.4297 13.7891C 17.4287 12.165 17.4277 10.5408 17.4326 8.91675C 17.4351 8.10718 18.0249 7.6167 18.7056 7.84106C 19.1538 7.98853 19.3726 8.31934 19.3867 8.77954C 19.3965 9.09302 19.395 9.40698 19.3931 9.72046L 19.3921 10.0706C 19.3931 12.9302 19.3936 15.7891 19.3921 18.6482C 19.3916 19.8403 18.7959 20.2244 17.6963 19.7444L 7.94971 15.4885L 7.88965 15.4622C 7.79688 15.4219 7.7041 15.3816 7.6167 15.332C 7.13965 15.0635 6.96143 14.5476 7.17676 14.0718C 7.38965 13.6021 7.91016 13.3667 8.4082 13.5686C 9.0166 13.8152 9.6167 14.0798 10.2173 14.3445L 10.9019 14.645L 13.5791 15.8125L 16.9365 17.2764C 17.0225 17.3137 17.1099 17.3484 17.2158 17.3906Z"/>
<path id="path1_fill" d="M 41.2758 39.5719C 41.3047 39.1155 41.3303 38.6796 41.3605 38.2437C 41.4034 37.62 41.1233 37.2187 40.6117 37.1764C 40.0848 37.1328 39.7502 37.4636 39.7073 38.0957C 39.6137 39.4912 39.5194 40.8867 39.4444 42.2835C 39.404 43.0405 39.8284 43.3899 40.5707 43.2559C 41.8701 43.0213 43.1701 42.7886 44.4701 42.5572C 45.0899 42.4469 45.4207 42.0841 45.3444 41.5873C 45.2649 41.07 44.8079 40.8078 44.1816 40.9181C 43.8271 40.9809 43.4726 41.0424 43.0194 41.1213C 43.5092 40.5085 43.9444 39.9963 44.3444 39.4572C 48.1502 34.3219 49.7912 28.5578 49.1451 22.2059C 48.0624 11.5559 40.5656 2.99758 30.1297 0.635398C 16.0015 -2.56204 3.15918 6.70142 0.520073 19.5924C -2.10685 32.4258 5.44764 44.8521 17.9899 48.3918C 21.8316 49.4758 25.7149 49.5726 29.6258 48.8014C 30.1816 48.6918 30.6092 48.4508 30.7246 47.8457C 30.8707 47.0803 30.206 46.4341 29.3983 46.5912C 27.7188 46.9174 26.0297 47.0989 24.3156 47.0828C 14.297 46.9892 5.397 40.0149 2.92071 30.3046C -0.236337 17.9251 7.32648 5.57386 19.7989 2.74117C 31.9964 -0.029346 44.3912 8.08155 46.6476 20.3636C 47.9303 27.3476 46.2944 33.6168 41.7842 39.1187C 41.6675 39.261 41.5399 39.3944 41.4143 39.5296C 41.3976 39.5469 41.363 39.5463 41.2758 39.5719Z"/>
</defs>
</svg>
