<svg width="50" height="50" viewBox="0 0 50 50" version="1.1" xmlns="http://www.w3.org/2000/svg" xmlns:xlink="http://www.w3.org/1999/xlink">
<title>Shape</title>
<desc>Created using Figma</desc>
<g id="Canvas" transform="translate(-6491 -3609)">
<g id="Shape">
<use xlink:href="#path0_fill" transform="translate(6491 3609)" fill="#F8A2ED"/>
</g>
</g>
<defs>
<path id="path0_fill" fill-rule="evenodd" d="M 25 0C 28.3193 0 31.4316 0.674316 34.3359 1.81543C 43.5166 5.49805 50 14.4709 50 25C 50 38.7966 38.7969 50 25 50C 11.2031 50 0 38.7966 0 25C 0 23.9626 0.103516 22.9253 0.20752 21.8879C 1.71143 9.54346 12.2407 0 25 0ZM 25.6743 38.3818L 25.6743 35.0105C 28.8901 34.6992 31.4834 32.3652 31.5352 29.6162C 31.5352 26.8154 28.9937 24.4294 25.7261 24.1702L 25.7261 17.0645C 27.1265 17.22 28.4233 17.946 29.0977 18.9834C 29.4087 19.3984 29.9795 19.554 30.4463 19.2427C 30.8608 18.9316 31.0166 18.3611 30.7056 17.8943C 29.668 16.2864 27.749 15.249 25.6743 15.0935L 25.6743 11.7222C 25.6743 11.1516 25.2075 10.7366 24.689 10.7366C 24.1182 10.7366 23.7031 11.2034 23.7031 11.7222L 23.7031 15.1453C 20.7471 15.6641 18.5166 17.8943 18.5166 20.5396C 18.5166 23.1848 20.7471 25.415 23.7031 25.9336L 23.7031 32.9875C 22.5103 32.6765 21.5249 32.054 20.9546 31.1724C 20.6431 30.7573 20.0728 30.6018 19.606 30.9128C 19.1909 31.2241 19.0352 31.7947 19.3467 32.2615C 20.228 33.6619 21.8882 34.6475 23.7031 34.9585L 23.7031 38.3818C 23.7031 38.9524 24.1699 39.3672 24.689 39.3672C 25.2593 39.3672 25.6743 38.9004 25.6743 38.3818ZM 25.6743 26.0374L 25.6743 33.0393C 27.8525 32.78 29.5645 31.3279 29.5645 29.5125C 29.5127 27.749 27.8525 26.2449 25.6743 26.0374ZM 23.7036 23.9109C 21.8364 23.4441 20.4878 22.0955 20.4878 20.4875C 20.4878 18.8796 21.8364 17.5312 23.7036 17.1162L 23.7036 23.9109Z"/>
</defs>
</svg>
