<svg width="26" height="20" viewBox="0 0 26 20" version="1.1" xmlns="http://www.w3.org/2000/svg" xmlns:xlink="http://www.w3.org/1999/xlink">
<title>Fill 1</title>
<desc>Created using Figma</desc>
<g id="Canvas" transform="translate(-7054 -410)">
<g id="Fill 1">
<use xlink:href="#path0_fill" transform="translate(7054 410)" fill="#C5C9CD"/>
</g>
</g>
<defs>
<path id="path0_fill" fill-rule="evenodd" d="M 21.4241 15.2863C 21.2899 15.2863 21.1574 15.2368 21.0526 15.1387L 15.9163 10.3186L 13.4664 12.7081C 13.2584 12.9103 12.928 12.9136 12.7158 12.7157L 9.94554 10.1157L 4.8118 15.1236C 4.59793 15.3324 4.25322 15.3283 4.04354 15.1135C 3.83386 14.898 3.83806 14.5541 4.05361 14.3444L 9.15296 9.3709L 4.05277 4.58438C 3.83386 4.3789 3.82212 4.03503 4.02844 3.81612C 4.23393 3.59806 4.57864 3.58716 4.7967 3.7918L 13.0806 11.5666L 21.0358 3.80774C 21.2497 3.5989 21.5944 3.60225 21.8041 3.8178C 22.0129 4.03251 22.0087 4.37638 21.794 4.58606L 16.6946 9.55961L 21.7957 14.3461C 22.0137 14.5516 22.0255 14.8963 21.82 15.1144C 21.7135 15.2284 21.5684 15.2863 21.4241 15.2863ZM 2.47162 1.08698C 1.7084 1.08698 1.08691 1.70846 1.08691 2.47252L 1.08691 16.8212C 1.08691 17.5844 1.7084 18.2067 2.47162 18.2067L 23.3748 18.2067C 24.138 18.2067 24.7612 17.5844 24.7612 16.8212L 24.7612 2.47252C 24.7612 1.70846 24.1388 1.08698 23.3756 1.08698L 2.47162 1.08698ZM 23.3748 19.2928L 2.47168 19.2928C 1.10877 19.2928 0 18.1841 0 16.8212L 0 2.47252C 0 1.10877 1.10877 0 2.47168 0L 23.3757 0C 24.7386 0 25.8474 1.10961 25.8474 2.47252L 25.8474 16.8212C 25.8482 18.1841 24.7377 19.2928 23.3748 19.2928Z"/>
</defs>
</svg>
