<svg width="60" height="42" viewBox="0 0 60 42" version="1.1" xmlns="http://www.w3.org/2000/svg" xmlns:xlink="http://www.w3.org/1999/xlink">
<title>Group 5</title>
<desc>Created using Figma</desc>
<g id="Canvas" transform="translate(-7048 -5493)">
<g id="Group 5">
<g id="Shape">
<use xlink:href="#path0_fill" transform="translate(7048 5528)" fill="#34D08C"/>
</g>
<g id="Shape">
<use xlink:href="#path1_fill" transform="translate(7048 5521)" fill="#34D08C"/>
</g>
<g id="Shape">
<use xlink:href="#path2_fill" transform="translate(7048 5513)" fill="#34D08C"/>
</g>
<g id="Shape">
<use xlink:href="#path3_fill" transform="translate(7048 5505)" fill="#34D08C"/>
</g>
<g id="Shape">
<use xlink:href="#path4_fill" transform="translate(7048 5493)" fill="#34D08C"/>
</g>
<g id="Combined Shape">
<use xlink:href="#path5_fill" transform="translate(7078 5499)" fill="#34D08C"/>
</g>
</g>
</g>
<defs>
<path id="path0_fill" d="M 0.597 0C 0.20475 0.473074 0 0.93864 0 1.36816C 0 3.66445 5.84325 7 15 7C 24.1567 7 30 3.66445 30 1.36816C 30 0.93864 29.7952 0.473074 29.403 0C 26.0182 2.00869 20.913 3.24544 15 3.24544C 9.087 3.24544 3.98175 2.00869 0.597 0Z"/>
<path id="path1_fill" d="M 15.0955 7C 21.8794 7 26.8459 5.1918 29 3.32203C 28.5464 2.55235 28.1463 1.74812 27.8052 0.91386C 24.4993 2.37664 20.0831 3.24544 15.0955 3.24544C 9.14487 3.24544 4.00711 2.00869 0.600802 0C 0.206054 0.473074 0 0.93864 0 1.36816C 0 3.66445 5.88046 7 15.0955 7Z"/>
<path id="path2_fill" d="M 15.2482 7C 20.2977 7 24.3438 6.01631 27 4.75102C 26.8018 3.68472 26.6927 2.58839 26.6866 1.46803C 23.5425 2.59365 19.6122 3.24544 15.2482 3.24544C 9.23736 3.24544 4.04764 2.00869 0.606879 0C 0.208138 0.473074 0 0.93864 0 1.36816C 0 3.66445 5.93994 7 15.2482 7Z"/>
<path id="path3_fill" d="M 15.4601 7C 20.6879 7 24.8613 5.97501 27.5498 4.67142C 27.8807 3.27473 28.3677 1.9351 29 0.675821C 25.5648 2.28202 20.8371 3.24544 15.4601 3.24544C 9.36571 3.24544 4.10388 2.00869 0.615311 0C 0.21103 0.473074 0 0.93864 0 1.36816C 0 3.66445 6.02247 7 15.4601 7Z"/>
<path id="path4_fill" d="M 15 12C 24.1567 12 30 8.4464 30 6C 30 3.5536 24.1567 0 15 0C 5.84325 0 0 3.5536 0 6C 0 8.4464 5.84325 12 15 12Z"/>
<path id="path5_fill" fill-rule="evenodd" d="M 0 15.5C 0 6.95312 6.729 0 15 0C 23.271 0 30 6.95312 30 15.5C 30 24.0469 23.271 31 15 31C 6.729 31 0 24.0469 0 15.5ZM 16.6206 13.4204L 22.1074 13.4204L 22.1079 17.1743L 16.6206 17.1743L 16.6206 22.8447L 12.9873 22.8447L 12.9873 17.1743L 7.5 17.1743L 7.5 13.4204L 12.9873 13.4204L 12.9873 7.75L 16.6206 7.75L 16.6206 13.4204Z"/>
</defs>
</svg>
