<svg width="20" height="23" viewBox="0 0 20 23" version="1.1" xmlns="http://www.w3.org/2000/svg" xmlns:xlink="http://www.w3.org/1999/xlink">
<title>Group 4</title>
<desc>Created using Figma</desc>
<g id="Canvas" transform="translate(-7055 -500)">
<g id="Group 4">
<g id="Shape">
<use xlink:href="#path0_fill" transform="translate(7055 500)" fill="#C5C9CD"/>
</g>
<g id="Shape">
<use xlink:href="#path1_fill" transform="translate(7063.89 514)" fill="#C5C9CD"/>
</g>
</g>
</g>
<defs>
<path id="path0_fill" fill-rule="evenodd" d="M 18.2578 9.01227L 18.1348 9.01227L 18.1348 6.53442C 18.1348 2.93152 14.4858 0 10.0005 0C 5.51514 0 1.86572 2.93118 1.86572 6.53442L 1.86572 9.01227L 1.74268 9.01227C 0.781738 9.01227 0 9.62708 0 10.3826L 0 21.6297C 0 22.3852 0.781738 23 1.74268 23L 18.2573 23C 19.2183 23 20 22.3852 20 21.6297L 20 10.3826C 20.0005 9.62708 19.2188 9.01227 18.2578 9.01227ZM 3.06006 6.53445C 3.06006 3.46033 6.17334 0.959167 10.0005 0.959167C 13.8276 0.959167 16.9409 3.46002 16.9409 6.53445L 16.9409 9.01227L 3.06006 9.01227L 3.06006 6.53445ZM 18.2578 22.0408C 18.5605 22.0408 18.8062 21.8564 18.8062 21.6297L 18.8062 10.3826C 18.8062 10.1559 18.5605 9.97144 18.2578 9.97144L 1.74268 9.97144C 1.44043 9.97144 1.19434 10.1559 1.19434 10.3826L 1.19434 21.6297C 1.19434 21.8564 1.44043 22.0408 1.74268 22.0408L 18.2578 22.0408Z"/>
<path id="path1_fill" d="M 1.11111 0C 0.497471 0 0 0.541 0 1.20833C 0 1.629 0.198008 1.99867 0.498084 2.21533L 0.498084 3.33333C 0.498084 3.70133 0.77272 4 1.11111 4C 1.4495 4 1.72414 3.70133 1.72414 3.33333L 1.72414 2.21533C 2.02421 1.999 2.22222 1.629 2.22222 1.20833C 2.22222 0.541 1.72475 0 1.11111 0Z"/>
</defs>
</svg>
