<svg width="46" height="48" viewBox="0 0 46 48" version="1.1" xmlns="http://www.w3.org/2000/svg" xmlns:xlink="http://www.w3.org/1999/xlink">
<title>noun_780226_cc</title>
<desc>Created using Figma</desc>
<g id="Canvas" transform="translate(-7348 -5713)">
<g id="noun_780226_cc">
<g id="Shape">
<use xlink:href="#path0_fill" transform="translate(7348 5713)" fill="#7592FB"/>
</g>
</g>
</g>
<defs>
<path id="path0_fill" fill-rule="evenodd" d="M 4.65869 20.8516L 10.3525 23.2061C 9.71045 24.8223 9.19824 26.4873 8.8208 28.1846L 8.60498 29.1636L 16.7676 37.3101L 17.749 37.0991C 19.4512 36.7231 21.1201 36.2124 22.7412 35.5718L 25.1021 41.2505C 25.1489 41.3647 25.2505 41.4482 25.3721 41.4717C 25.4937 41.4956 25.6191 41.4565 25.7056 41.3682L 29.2739 37.8091C 30.4517 36.6348 31.0757 35.0181 30.9922 33.3594L 30.8643 31.0732C 37.4712 26.207 44.1562 17.6743 45.9771 2.78223C 46.082 2.02539 45.8262 1.26318 45.2861 0.72168C 44.7456 0.179688 43.9829 -0.0791016 43.2236 0.0209961C 28.2974 1.85205 19.7373 8.52441 14.8584 15.0942L 12.5708 14.9771C 10.9111 14.8867 9.29102 15.5 8.10938 16.6655L 4.54102 20.2246C 4.44043 20.3101 4.39307 20.4429 4.41748 20.5723C 4.44189 20.7017 4.53369 20.8081 4.65869 20.8516ZM 27.5508 12.1768C 29.2773 10.4604 32.0718 10.4639 33.7944 12.1841C 35.5171 13.9043 35.5171 16.6909 33.7944 18.4111C 32.0718 20.1313 29.2773 20.1348 27.5508 18.4185C 26.7188 17.5918 26.2515 16.4688 26.2515 15.2974C 26.2515 14.1265 26.7188 13.0034 27.5508 12.1768ZM 0.648438 37.7261C 1.63379 37.5493 2.64844 37.6299 3.59326 37.9609C -0.912598 41.564 -0.0585938 45.7446 0.491211 47.6147C 0.545898 47.8037 0.700684 47.9473 0.894043 47.9883C 1.08691 48.0293 1.28662 47.9609 1.41406 47.8105C 2.96973 46.0381 6.77881 45.3677 8.84033 45.1475C 10.2842 45.0049 11.6133 44.3013 12.541 43.189C 14.6665 40.5801 12.7476 37.8774 12.0503 37.0503C 12.0029 36.9922 11.9316 36.9585 11.8564 36.9585C 11.7812 36.9585 11.71 36.9922 11.6626 37.0503C 10.5806 38.394 8.92285 39.146 7.1958 39.0771C 6.98779 39.0693 6.8208 38.9028 6.81299 38.6953C 6.75537 36.9653 7.52588 35.311 8.88965 34.2402C 8.94238 34.1929 8.97266 34.1255 8.97266 34.0542C 8.97266 33.9834 8.94238 33.9155 8.88965 33.8682C 3.86816 30.2261 1.09473 34.7349 0.0493164 36.9771C -0.0449219 37.1802 -0.00195312 37.4209 0.157227 37.5791C 0.284668 37.709 0.470215 37.7642 0.648438 37.7261Z"/>
</defs>
</svg>
