<svg width="57" height="57" viewBox="0 0 57 57" version="1.1" xmlns="http://www.w3.org/2000/svg" xmlns:xlink="http://www.w3.org/1999/xlink">
<title>noun_1164250_cc</title>
<desc>Created using Figma</desc>
<g id="Canvas" transform="translate(-6757 -5704)">
<g id="noun_1164250_cc">
<g id="Group">
<g id="Shape">
<use xlink:href="#path0_fill" transform="translate(6774.81 5726.03)" fill="#F6BF4E"/>
</g>
<g id="Shape">
<use xlink:href="#path1_fill" transform="translate(6757 5704)" fill="#F6BF4E"/>
</g>
</g>
</g>
</g>
<defs>
<path id="path0_fill" d="M 19.9829 0.0160774C 13.8895 1.08065 8.15664 7.65017 6.1823 10.1295L 1.87414 7.0773C 1.33837 6.69924 0.597921 6.82449 0.218709 7.36025C -0.160502 7.89602 -0.0340981 8.63705 0.501089 9.01626L 5.74221 12.7284C 5.95037 12.8756 6.18984 12.9464 6.42757 12.9464C 6.79519 12.9464 7.15816 12.7759 7.3901 12.4558C 7.45562 12.3665 13.9648 3.47885 20.3923 2.35629C 21.0382 2.24264 21.4702 1.62802 21.3571 0.982081C 21.2452 0.334986 20.6364 -0.0894524 19.9829 0.0160774Z"/>
<path id="path1_fill" fill-rule="evenodd" d="M 52.4873 21.1138L 54.625 23.0967C 56.1567 24.5337 57 26.4458 57 28.5C 57 30.5542 56.1567 32.4663 54.625 33.8911L 52.4873 35.8862C 51.9771 36.373 51.5493 36.979 51.2881 37.6318L 51.0625 38.1543C 50.8013 38.8076 50.6704 39.5317 50.6943 40.2324L 50.7896 43.1538C 50.8604 45.1963 50.1362 47.1201 48.7471 48.5571C 47.3574 50.0059 45.4692 50.7896 43.4268 50.7896L 40.0664 50.6826C 39.4014 50.6826 38.7598 50.813 38.1543 51.0625L 37.6318 51.2764C 36.9668 51.5615 36.3848 51.9648 35.8862 52.4873L 33.9033 54.625C 32.4663 56.1567 30.5542 57 28.5 57C 26.4575 57 24.5337 56.1567 23.1089 54.625L 21.1138 52.4873C 20.6147 51.9648 20.0332 51.5615 19.3682 51.2764L 18.8574 51.0625C 18.2397 50.813 17.5986 50.6826 16.9336 50.6826L 16.7676 50.6826L 13.585 50.7896C 11.5425 50.7896 9.6543 50.0059 8.26514 48.5688C 6.87549 47.1201 6.13916 45.1963 6.21045 43.1538L 6.31738 40.2324C 6.34131 39.52 6.21045 38.8193 5.9375 38.1426L 5.72363 37.6318C 5.45068 36.979 5.03516 36.373 4.5127 35.8862L 2.375 33.8911C 0.843262 32.4663 0 30.5542 0 28.5C 0 26.4458 0.843262 24.5337 2.375 23.0967L 4.5127 21.1138C 5.03516 20.6152 5.45068 20.0332 5.72363 19.3682L 5.9375 18.8457C 6.21045 18.1807 6.34131 17.48 6.31738 16.7559L 6.21045 13.8462C 6.13916 11.792 6.87549 9.86816 8.26514 8.43115C 9.6543 6.99463 11.5425 6.21045 13.5732 6.21045L 16.9336 6.31738C 17.5986 6.31738 18.2397 6.18701 18.8574 5.9375L 19.3682 5.72363C 20.0332 5.43896 20.627 5.03516 21.1138 4.5127L 23.1089 2.375C 24.5337 0.843262 26.4575 0 28.5 0C 30.5542 0 32.4663 0.843262 33.9033 2.375L 35.8862 4.5127C 36.3848 5.03516 36.9668 5.43896 37.6318 5.72363L 38.1543 5.9375C 38.7598 6.18701 39.4131 6.31738 40.0664 6.31738L 40.2441 6.30566L 43.4268 6.21045C 45.4692 6.21045 47.3574 6.99463 48.7471 8.43115C 50.1362 9.86816 50.8604 11.792 50.7896 13.8462L 50.6943 16.7559C 50.6704 17.4683 50.8013 18.1924 51.0625 18.8457L 51.2881 19.3682C 51.561 20.0332 51.9648 20.6152 52.4873 21.1138ZM 9.63037 28.5C 9.63037 38.9023 18.0972 47.3691 28.5 47.3691C 38.9141 47.3691 47.3809 38.9023 47.3809 28.5C 47.3809 18.0854 38.9141 9.61865 28.5 9.61865C 18.0972 9.61865 9.63037 18.0854 9.63037 28.5Z"/>
</defs>
</svg>
