<svg width="20" height="22" viewBox="0 0 20 22" version="1.1" xmlns="http://www.w3.org/2000/svg" xmlns:xlink="http://www.w3.org/1999/xlink">
<title>Shape</title>
<desc>Created using Figma</desc>
<g id="Canvas" transform="translate(-7057 -314)">
<g id="Shape">
<use xlink:href="#path0_fill" transform="translate(7057 314)" fill="#C5C9CD"/>
</g>
</g>
<defs>
<path id="path0_fill" fill-rule="evenodd" d="M 10 0C 7.06201 0 4.6665 2.39572 4.6665 5.33334C 4.6665 8.27094 7.06201 10.6667 10 10.6667C 12.9375 10.6667 15.333 8.27094 15.333 5.33334C 15.333 2.39572 12.9375 0 10 0ZM 10 1.33334C 12.2168 1.33334 14 3.1163 14 5.33334C 14 7.55038 12.2168 9.33334 10 9.33334C 7.7832 9.33334 6 7.55038 6 5.33334C 6 3.1163 7.7832 1.33334 10 1.33334ZM 0 21.0417C 0 15.6602 4.48242 11.3333 10 11.3333C 15.5176 11.3333 20 15.6602 20 21.0417L 20 22L 18.6665 22L 18.6665 21.0417C 18.6665 16.3984 14.8237 12.6667 10 12.6667C 5.17627 12.6667 1.3335 16.3984 1.3335 21.0417L 1.3335 22L 0 22L 0 21.0417Z"/>
</defs>
</svg>
