<svg width="41" height="45" viewBox="0 0 41 45" version="1.1" xmlns="http://www.w3.org/2000/svg" xmlns:xlink="http://www.w3.org/1999/xlink">
<title>Shape</title>
<desc>Created using Figma</desc>
<g id="Canvas" transform="translate(-6496 -3253)">
<g id="Shape">
<use xlink:href="#path0_fill" transform="translate(6496 3253)" fill="#63D4FA"/>
</g>
</g>
<defs>
<path id="path0_fill" fill-rule="evenodd" d="M 19.9604 0L 0 8.77222C 0 32.7302 10.5244 39.3252 19.9604 45C 21.7466 43.926 23.5703 42.8196 25.3555 41.5681L 25.3555 29.4644L 27.5132 29.4644C 27.5132 27.5459 28.2139 25.8572 29.418 24.7266C 30.6226 23.5959 32.2744 23.0356 33.9868 23.0356C 35.4424 23.0356 36.8516 23.4419 37.9824 24.2578C 39.2085 20.0789 39.9209 15.0215 39.9209 8.77222L 19.9604 0ZM 33.9868 24.6428C 32.7026 24.6428 31.4678 25.0671 30.5645 25.915C 29.6611 26.7632 29.1313 28.0256 29.1313 29.4644L 29.1313 31.0713L 26.9736 31.0713L 26.9736 41.7856L 41 41.7856L 41 31.0713L 38.8423 31.0713L 38.8423 29.4644C 38.8423 28.0256 38.3125 26.7632 37.4092 25.915C 36.5054 25.0671 35.271 24.6428 33.9868 24.6428ZM 35.9258 27.4719C 35.4639 27.0386 34.7949 26.7856 33.9868 26.7856C 33.1792 26.7856 32.5098 27.0386 32.0483 27.4719C 31.5864 27.9055 31.2896 28.5286 31.2896 29.4641L 31.2896 31.0713L 36.6841 31.0713L 36.6841 29.4641C 36.6841 28.5286 36.3872 27.9055 35.9258 27.4719Z"/>
</defs>
</svg>
