<svg width="49" height="43" viewBox="0 0 49 43" version="1.1" xmlns="http://www.w3.org/2000/svg" xmlns:xlink="http://www.w3.org/1999/xlink">
<title>Shape</title>
<desc>Created using Figma</desc>
<g id="Canvas" transform="translate(-6472 -5492)">
<g id="Shape">
<use xlink:href="#path0_fill" transform="translate(6472 5492)" fill="#63D4FA"/>
</g>
</g>
<defs>
<path id="path0_fill" fill-rule="evenodd" d="M 16.6553 19.8335C 21.377 19.8335 25.2031 15.0981 25.2031 9.25635C 25.2031 3.41406 21.3765 0 16.6553 0C 11.9351 0 8.1084 3.41406 8.1084 9.25635C 8.1084 15.0977 11.9351 19.8335 16.6553 19.8335ZM 33.2515 34.7822C 32.4189 27.106 25.416 24.375 16.896 24.375C 16.8486 24.375 16.8013 24.3765 16.7539 24.3784L 16.6543 24.3813L 16.5547 24.3784C 16.5078 24.3765 16.4609 24.375 16.4121 24.375C 7.89355 24.375 0.890137 27.106 0.0576172 34.7822C 0.0424805 34.9185 0.0292969 35.7539 0.0166016 36.5576L 0.0151367 36.6597L 0 37.5669C 4.58643 41.1074 10.1582 43.001 16.6538 43C 23.0791 43 28.7422 41.0381 33.3081 37.5669L 33.2993 36.9966C 33.2856 36.0879 33.2681 34.9438 33.2515 34.7822ZM 41.6831 13.5415L 48.9995 13.5415L 49 18.4121L 41.6831 18.4121L 41.6831 25.769L 36.8394 25.769L 36.8394 18.4121L 29.5225 18.4121L 29.5225 13.5415L 36.8394 13.5415L 36.8394 6.18457L 41.6831 6.18457L 41.6831 13.5415Z"/>
</defs>
</svg>
