<svg width="25" height="16" viewBox="0 0 25 16" version="1.1" xmlns="http://www.w3.org/2000/svg" xmlns:xlink="http://www.w3.org/1999/xlink">
<title>google+</title>
<desc>Created using Figma</desc>
<g id="Canvas" transform="translate(-7412 -6603)">
<g id="google+">
<g id="Group">
<g id="Fill 11">
<use xlink:href="#path0_fill" transform="translate(7412 6603)" fill="#F24033"/>
</g>
<g id="Fill 13">
<use xlink:href="#path1_fill" transform="translate(7429.07 6606.69)" fill="#F24033"/>
</g>
</g>
</g>
</g>
<defs>
<path id="path0_fill" fill-rule="evenodd" d="M 7.81524 6.33662L 7.81524 9.46585C 7.81524 9.46585 10.8177 9.46154 12.0402 9.46154C 11.378 11.4905 10.3488 12.5951 7.81524 12.5951C 5.25122 12.5951 3.25 10.4935 3.25 7.90154C 3.25 5.30892 5.25122 3.20738 7.81524 3.20738C 9.17073 3.20738 10.0463 3.68923 10.8494 4.36062C 11.4921 3.71077 11.4384 3.61785 13.0744 2.05662C 11.6854 0.779077 9.84024 0 7.81524 0C 3.49878 0 0 3.53723 0 7.90154C 0 12.2652 3.49878 15.8025 7.81524 15.8025C 14.2665 15.8025 15.8433 10.1231 15.3207 6.33662L 7.81524 6.33662Z"/>
<path id="path1_fill" fill-rule="evenodd" d="M 4.72012 2.73846L 4.72012 0L 2.78598 0L 2.78598 2.73846L 0 2.73846L 0 4.69415L 2.78598 4.69415L 2.78598 7.51015L 4.72012 7.51015L 4.72012 4.69415L 7.42805 4.69415L 7.42805 2.73846L 4.72012 2.73846Z"/>
</defs>
</svg>
