<svg width="17" height="11" viewBox="0 0 17 11" version="1.1" xmlns="http://www.w3.org/2000/svg" xmlns:xlink="http://www.w3.org/1999/xlink">
<title>Shape</title>
<desc>Created using Figma</desc>
<g id="Canvas" transform="translate(-6790 -1957)">
<g id="Shape">
<use xlink:href="#path0_fill" transform="translate(6790 1957)" fill="#FFFFFF"/>
</g>
</g>
<defs>
<path id="path0_fill" d="M 15.8231 0.00082995C 15.5287 0.00947158 15.2496 0.123814 15.045 0.319581C 12.2587 2.9004 9.02149 5.88378 6.15845 8.53319L 1.86107 5.22323C 1.55007 4.98242 1.12351 4.91364 0.742659 5.0429C 0.361806 5.17216 0.0847709 5.47974 0.0162864 5.84936C -0.052198 6.21897 0.0983181 6.59423 0.410932 6.83325L 5.50411 10.7562C 5.95502 11.1049 6.61969 11.0765 7.03385 10.6908C 10.0502 7.89686 13.6343 4.5962 16.6543 1.79884C 16.9921 1.49732 17.0935 1.0343 16.9089 0.635142C 16.7244 0.235983 16.2924 -0.0164008 15.8231 0.00082995Z"/>
</defs>
</svg>
