<svg width="63" height="39" viewBox="0 0 63 39" version="1.1" xmlns="http://www.w3.org/2000/svg" xmlns:xlink="http://www.w3.org/1999/xlink">
<title>Shape</title>
<desc>Created using Figma</desc>
<g id="Canvas" transform="translate(-6902 -3616)">
<g id="Shape">
<use xlink:href="#path0_fill" transform="translate(6902 3616)" fill="#34D08C"/>
</g>
</g>
<defs>
<path id="path0_fill" fill-rule="evenodd" d="M 43.4535 0C 54.2464 0 62.9999 8.73275 62.9999 19.5C 62.9999 30.2673 54.2464 39 43.4535 39C 32.6607 39 23.9072 30.2673 23.9072 19.5C 23.9072 8.73275 32.6607 0 43.4535 0ZM 18.1029 8.63892C 19.0755 8.63892 19.8913 9.42142 19.8913 10.3917C 19.8913 11.362 19.0755 12.1758 18.1029 12.1758L 8.72194 12.1758C 7.71796 12.1758 6.93359 11.362 6.93359 10.3917C 6.93359 9.42142 7.71796 8.63892 8.72194 8.63892L 18.1029 8.63892ZM 16.597 16.6516C 17.601 16.6516 18.3853 17.4341 18.3853 18.4044C 18.3853 19.3747 17.601 20.1885 16.597 20.1885L 3.38832 20.1885C 2.41571 20.1885 1.63135 19.3747 1.63135 18.4044C 1.63135 17.4341 2.41571 16.6516 3.38832 16.6516L 16.597 16.6516ZM 18.5423 24.915C 19.5149 24.915 20.2993 25.7288 20.2993 26.6991C 20.2993 27.6695 19.5149 28.4833 18.5423 28.4833L 1.78835 28.4833C 0.784363 28.4833 0 27.6695 0 26.6991C 0 25.7288 0.784363 24.915 1.78835 24.915L 18.5423 24.915ZM 48.4108 11.1742C 50.5442 12.2071 52.1757 13.9599 53.0542 16.0257C 53.1169 16.1822 53.1797 16.3387 53.2424 16.4952L 49.9167 17.7159C 49.8854 17.622 49.854 17.5281 49.7912 17.4342C 49.2579 16.2135 48.348 15.1493 47.093 14.4607L 42.5751 25.6974C 43.9556 26.073 45.3674 25.9478 46.591 25.447C 46.9048 25.2905 47.2185 25.134 47.5323 24.9462L 49.4775 27.8884C 49.0069 28.2014 48.5049 28.4831 47.9715 28.7022C 45.9008 29.5786 43.5163 29.7351 41.2574 29.0152L 40.0338 31.9888L 37.1473 30.8307L 38.4337 27.5754C 37.0532 26.5425 35.9865 25.1653 35.2962 23.6316C 34.3236 21.3467 34.2295 18.7175 35.2335 16.2448C 36.2061 13.8034 38.1199 11.9567 40.3789 10.9864C 41.9476 10.329 43.6732 10.0473 45.3988 10.2664L 46.6852 7.01123L 49.603 8.20064L 48.4108 11.1742ZM 43.987 13.7407C 43.234 13.772 42.481 13.9285 41.7908 14.2415C 40.3475 14.8362 39.1553 15.9943 38.5278 17.5593C 37.9003 19.1243 37.9631 20.7833 38.5592 22.2231C 38.8729 22.9117 39.3122 23.569 39.8456 24.1011L 43.987 13.7407Z"/>
</defs>
</svg>
