<svg width="47" height="50" viewBox="0 0 47 50" version="1.1" xmlns="http://www.w3.org/2000/svg" xmlns:xlink="http://www.w3.org/1999/xlink">
<title>Shape</title>
<desc>Created using Figma</desc>
<g id="Canvas" transform="translate(-7327 -3249)">
<g id="Shape">
<use xlink:href="#path0_fill" transform="translate(7327 3249)" fill="#7592FB"/>
</g>
</g>
<defs>
<path id="path0_fill" fill-rule="evenodd" d="M 16.4878 16.9541L 14.3608 16.5815C 13.5776 16.4478 13.0054 15.7737 13.0044 14.9846L 13.0044 13.1938C 13.0049 12.4065 13.5747 11.7332 14.3555 11.5969L 16.4829 11.2246C 16.7344 10.3047 17.1055 9.42114 17.5874 8.59692L 16.3491 6.8418C 15.8916 6.19678 15.9673 5.31836 16.5293 4.76025L 17.8032 3.49487C 18.3643 2.93555 19.249 2.85791 19.8999 3.31128L 21.6621 4.54077C 22.4927 4.06567 23.3823 3.70044 24.3081 3.4541L 24.6831 1.3418C 24.8203 0.566406 25.4985 0.000488281 26.2915 0L 28.1206 0C 28.9102 0.00244141 29.5845 0.565186 29.7236 1.33667L 30.0986 3.44897C 31.0249 3.69678 31.9146 4.06396 32.7446 4.54077L 34.4917 3.31128C 35.1426 2.85791 36.0273 2.93555 36.5879 3.49487L 37.8828 4.76025C 38.4316 5.32861 38.4902 6.20654 38.0215 6.8418L 36.7832 8.59692C 37.2637 9.42163 37.6333 10.3049 37.8828 11.2246L 40.0103 11.5969C 40.791 11.7332 41.3608 12.4065 41.3613 13.1938L 41.3613 14.9846C 41.3608 15.772 40.791 16.4456 40.0103 16.5815L 37.8828 16.9541C 37.6396 17.8728 37.2769 18.7561 36.8037 19.5815L 38.063 21.3367C 38.5205 21.9817 38.4448 22.8604 37.8828 23.4185L 36.6089 24.6836C 36.0464 25.2415 35.1621 25.3169 34.5122 24.8623L 32.7446 23.6326C 31.916 24.1091 31.0283 24.4761 30.104 24.7246L 29.729 26.8367C 29.5918 27.6123 28.9136 28.178 28.1206 28.1785L 26.2964 28.1785C 25.5034 28.178 24.8257 27.6123 24.6885 26.8367L 24.3135 24.7246C 23.3872 24.4763 22.4976 24.1094 21.667 23.6326L 19.8999 24.8623C 19.25 25.3169 18.3652 25.2415 17.8032 24.6836L 16.5293 23.4185C 15.9673 22.8604 15.8916 21.9817 16.3491 21.3367L 17.5874 19.5815C 17.1074 18.7571 16.7378 17.8738 16.4878 16.9541ZM 33.2588 14.0969C 33.2642 10.7712 30.5552 8.06982 27.2061 8.06128L 27.1958 8.06128C 23.8447 8.06421 21.1284 10.7593 21.1226 14.0867C 21.1226 17.4126 23.8364 20.1094 27.1855 20.1123C 30.5347 20.115 33.2529 17.4229 33.2588 14.0969ZM 10.189 50L 0 40.1428L 7.2959 32.9438C 10.3198 29.9617 14.7939 28.957 18.8154 30.3572L 20.4136 30.9133L 30.2788 30.9133C 31.1172 30.9128 31.9199 31.2512 32.5015 31.8511C 33.083 32.4507 33.3936 33.2598 33.3613 34.0918C 33.2651 35.7896 31.8364 37.1091 30.1245 37.0818L 24.2261 37.0818C 23.5591 37.0818 23.0186 37.6184 23.0186 38.2808C 23.0186 38.9429 23.5591 39.4797 24.2261 39.4797L 30.145 39.4797C 33.144 39.4817 35.6226 37.1572 35.792 34.1838L 35.792 34.1072L 41.269 27.9849C 42.4268 26.6572 44.4302 26.4663 45.8213 27.551C 46.4971 28.1023 46.9189 28.9023 46.9893 29.7681C 47.0601 30.6338 46.7739 31.4907 46.1963 32.1428L 35.2627 44.5562C 33.8062 46.2153 31.6987 47.1677 29.4824 47.1685L 13.0405 47.1685L 10.189 50ZM 25.959 11.1218C 24.7515 11.6187 23.9639 12.7888 23.9639 14.0867C 23.9639 15.8591 25.4106 17.2959 27.1958 17.2959C 28.5029 17.2959 29.6812 16.5139 30.1816 15.3149C 30.6816 14.1157 30.4053 12.7354 29.481 11.8174C 28.5566 10.8997 27.1665 10.625 25.959 11.1218Z"/>
</defs>
</svg>
