<svg width="21" height="18" viewBox="0 0 21 18" version="1.1" xmlns="http://www.w3.org/2000/svg" xmlns:xlink="http://www.w3.org/1999/xlink">
<title>twitter</title>
<desc>Created using Figma</desc>
<g id="Canvas" transform="translate(-7300 -6602)">
<g id="twitter">
<g id="Fill 8">
<use xlink:href="#path0_fill" transform="translate(7300 6602)" fill="#24A9E6"/>
</g>
</g>
</g>
<defs>
<path id="path0_fill" fill-rule="evenodd" d="M 20.1268 0.324562C 19.3056 0.831375 18.3982 1.20094 17.4283 1.39838C 16.6563 0.53775 15.5516 0 14.3297 0C 11.986 0 10.0844 1.9845 10.0844 4.43194C 10.0844 4.77956 10.1214 5.11706 10.1938 5.44162C 6.66474 5.25656 3.53629 3.49369 1.44071 0.808875C 1.07487 1.46587 0.865974 2.22806 0.865974 3.03919C 0.865974 4.5765 1.61589 5.93325 2.75487 6.72862C 2.06076 6.70725 1.40424 6.50475 0.831158 6.17512L 0.831158 6.22969C 0.831158 8.37787 2.29453 10.17 4.23868 10.5761C 3.88224 10.6796 3.50755 10.7319 3.12016 10.7319C 2.84605 10.7319 2.57913 10.7049 2.31995 10.6526C 2.86097 12.4132 4.42824 13.6952 6.28674 13.7295C 4.83387 14.9186 3.00189 15.6274 1.01297 15.6274C 0.670342 15.6274 0.331579 15.6071 0 15.5672C 1.87895 16.8221 4.11213 17.5567 6.50889 17.5567C 14.3209 17.5567 18.5916 10.8039 18.5916 4.94662C 18.5916 4.75369 18.5878 4.56131 18.5806 4.37231C 19.4101 3.74737 20.1307 2.96719 20.6977 2.07844C 19.9373 2.43056 19.1188 2.66906 18.2595 2.77537C 19.1371 2.22806 19.8102 1.35956 20.1268 0.324562Z"/>
</defs>
</svg>
